<mxfile host="app.diagrams.net" modified="2024-04-03T10:12:10.479Z" agent="Mozilla/5.0 (Macintosh; Intel Mac OS X 10_15_7) AppleWebKit/537.36 (KHTML, like Gecko) Chrome/119.0.0.0 Safari/537.36" version="24.2.1" etag="NtrKqQFAc9lM3-o6AJEC" type="github">
  <diagram name="第 1 页" id="H5NMynAmT93d1lzC5imi">
    <mxGraphModel>
      <root>
        <mxCell id="0" />
        <mxCell id="1" parent="0" />
      </root>
    </mxGraphModel>
  </diagram>
</mxfile>
